<svg xmlns="http://www.w3.org/2000/svg" xmlns:xlink="http://www.w3.org/1999/xlink" viewBox="0 0 203.02 223.99"><defs><style>.cls-1{fill:#afe0e5;}.cls-2{fill:#bfe7f8;}.cls-3{fill:#d4effb;}.cls-4{fill:url(#linear-gradient);}.cls-5{fill:#7ed1e2;}.cls-6{fill:#2ba3ce;}.cls-7{fill:url(#linear-gradient-2);}</style><linearGradient id="linear-gradient" x1="39" y1="122.6" x2="126.33" y2="122.6" gradientUnits="userSpaceOnUse"><stop offset="0" stop-color="#afe0e5"/><stop offset="1" stop-color="#06b0d8"/></linearGradient><linearGradient id="linear-gradient-2" x1="13.26" y1="111.17" x2="46.67" y2="111.17" xlink:href="#linear-gradient"/></defs><g id="Calque_2" data-name="Calque 2"><g id="Layer_1" data-name="Layer 1"><path class="cls-1" d="M0,0S25.58,20.63,25.35,48.35C25.35,48.35,34.79,14.15,0,0Z"/><path class="cls-1" d="M22.91,2s12.56,24.84,2.72,46.17C25.63,48.15,44.83,25,22.91,2Z"/><path class="cls-2" d="M125,222.84c-9.51,6.37-34.59-14.37-56-46.34s-31.07-63-21.56-69.41,34.58,14.37,56,46.33S134.48,216.46,125,222.84Z"/><path class="cls-1" d="M180.16,203.74c-7.75,11.49-45.33-.32-83.92-26.37s-63.6-56.48-55.85-68,45.33.32,83.92,26.37S187.91,192.26,180.16,203.74Z"/><path class="cls-3" d="M124.59,194.12c-4.19-11.91-11.47-26.21-21.18-40.7-21.42-32-46.49-52.7-56-46.33-4.76,3.19-4.72,12.58-.8,25.17,9.51,13.49,27.28,30,49.63,45.11A261.81,261.81,0,0,0,124.59,194.12Z"/><path class="cls-1" d="M202.38,73.21c5.62,24.38-26.61,52.62-72,63.07s-86.71-.83-92.33-25.22,26.61-52.62,72-63.07S196.77,48.83,202.38,73.21Z"/><path class="cls-4" d="M126.33,137.16l-2-1.38c-38.59-26-76.17-37.86-83.92-26.37A8.68,8.68,0,0,0,39,114.13C47,135.67,84.51,145.65,126.33,137.16Z"/><path class="cls-1" d="M179,16.55c13.89,20.82-6.26,58.64-45,84.48S52.58,131,38.7,110.14,45,51.5,83.69,25.66,165.09-4.26,179,16.55Z"/><path class="cls-5" d="M110.05,48C66.36,58.05,34.88,84.6,37.6,108.32c.34.62.7,1.23,1.1,1.82C52.58,131,95.24,126.88,134,101c22.18-14.8,38.25-33.52,45.34-50.73C161.87,43.22,136.66,41.86,110.05,48Z"/><path class="cls-6" d="M96.23,119.17c-27.31-13.86-50-18.4-55.84-9.76a7.54,7.54,0,0,0-.88,1.83C49.33,124.33,71.33,126.68,96.23,119.17Z"/><path class="cls-7" d="M23.68,60.47s-4.72,67.21,23,101.41C46.67,161.88-9.34,131.81,23.68,60.47Z"/><circle class="cls-1" cx="27.32" cy="46.22" r="9.53" transform="translate(-7.07 4.99) rotate(-9.25)"/><path class="cls-5" d="M26.5,36.73a9.33,9.33,0,0,0-2.42.53,46.84,46.84,0,0,1,1.27,11.09A43.37,43.37,0,0,0,26.5,36.73Z"/><path class="cls-5" d="M31.33,37.58a9.46,9.46,0,0,0-2.42-.75,40.46,40.46,0,0,1-3.28,11.32A38,38,0,0,0,31.33,37.58Z"/></g></g></svg>