<svg xmlns="http://www.w3.org/2000/svg" xmlns:xlink="http://www.w3.org/1999/xlink" viewBox="0 0 169.11 209.2"><defs><style>.cls-1{fill:#feec98;}.cls-2{fill:#f9df18;}.cls-3{fill:#fef39c;}.cls-4{fill:#fce46d;}.cls-5{fill:url(#linear-gradient);}.cls-6{fill:#fff5ae;}.cls-7{fill:#e8cd21;}.cls-8{fill:url(#linear-gradient-2);}</style><linearGradient id="linear-gradient" x1="25.16" y1="158.71" x2="161.51" y2="158.71" gradientUnits="userSpaceOnUse"><stop offset="0" stop-color="#feec98"/><stop offset="1" stop-color="#f2cc15"/></linearGradient><linearGradient id="linear-gradient-2" x1="7.04" y1="121.12" x2="36.73" y2="121.12" gradientTransform="matrix(1, 0.09, -0.09, 1, 6.78, 1.06)" xlink:href="#linear-gradient"/></defs><g id="Calque_2" data-name="Calque 2"><g id="Layer_1" data-name="Layer 1"><path class="cls-1" d="M109.91,112.24c10,.07,21.55.79,31.84,3.07,19-14.57,32.71-40.91,21.11-88.59,0,0-4.49.46-11.86,1.76C162.53,77.11,132.83,101.2,109.91,112.24Z"/><path class="cls-2" d="M24.08,123.21v.06a.13.13,0,0,1,0-.06Z"/><path class="cls-3" d="M41.08,159.79c-.2-.27-.4-.55-.59-.85l0,0a109.16,109.16,0,0,1-12-24.57l.19-.05c-1.93-5.15-3.05-9-3.45-10.39h0c.07,1.23-.7,5,.16,10.83h0a109.5,109.5,0,0,0,6.48,26.55v0c.12.33.26.65.4.95,22,53.55,83.11,61.78,120,22.11,9.34-10.05,11.57-18.48,9.32-25.51C133.05,203,73.13,206.73,41.08,159.79Z"/><path class="cls-1" d="M151,28.48A140.84,140.84,0,0,0,140.62,0S24.92,37.13,24.92,118.93C38.68,54.33,120.13,33.94,151,28.48Z"/><path class="cls-4" d="M25.8,123c26.12-8.68,66.05-10.27,66.1-10.27,4.34-.28,10.73-.57,18-.52,22.92-11,52.62-35.13,41.09-83.76C120.13,33.94,38.68,54.33,24.92,118.93c0,1.41,0,2.8.08,4.18Z"/><path class="cls-2" d="M25,123.66h.08c0-.15-.08-.26-.09-.32C25,123.45,25,123.55,25,123.66Z"/><path class="cls-2" d="M25,123.11a1,1,0,0,1,0,.17l.79-.25Z"/><path class="cls-1" d="M141.75,115.31c-10.27,7.87-22.09,12.3-32.31,14.79,20.31,4.48,47.1,13.23,52.07,28.76.52-.81,1-1.62,1.53-2.45C178.18,131.07,162.7,120,141.75,115.31Z"/><path class="cls-5" d="M109.44,130.1a108.12,108.12,0,0,1-24.86,3.19s-19.73,2-59.42-9.4c.4,1.42,1.52,5.24,3.45,10.39l-.19.05a109.16,109.16,0,0,0,12,24.57l0,0c.19.3.39.58.59.85,32.05,46.94,92,43.25,120.43-.93C156.54,143.33,129.75,134.58,109.44,130.1Z"/><path class="cls-6" d="M109.91,112.24a108.43,108.43,0,0,1-23.64,8.3s-6.22,2-19.29,3.15a262.36,262.36,0,0,1-41.88,0c0,.07,0,.15.06.23,39.69,11.38,59.42,9.4,59.42,9.4a108.12,108.12,0,0,0,24.86-3.19c10.22-2.49,22-6.92,32.31-14.79C131.46,113,119.86,112.31,109.91,112.24Z"/><path class="cls-2" d="M25,123.29l0,0v-.06Z"/><path class="cls-7" d="M91.9,112.76c-.05,0-40,1.59-66.1,10.27l-.79.25v.06c0,.06,0,.17.09.32a262.36,262.36,0,0,0,41.88,0c13.07-1.16,19.29-3.15,19.29-3.15a108.43,108.43,0,0,0,23.64-8.3C102.63,112.19,96.24,112.48,91.9,112.76Z"/><path class="cls-1" d="M0,22.84S21,43.19,18.49,67.7C18.49,67.7,29.63,38.21,0,22.84Z"/><path class="cls-1" d="M20.11,26.47s9.09,23-1.36,41.08C18.75,67.55,37.63,48.66,20.11,26.47Z"/><path class="cls-8" d="M16,78.29s-9.67,59.1,12.06,91.63C28.08,169.92-19,138.73,16,78.29Z"/><path class="cls-1" d="M28.83,66.76a8.47,8.47,0,1,0-9.21,7.65A8.47,8.47,0,0,0,28.83,66.76Z"/><path class="cls-4" d="M20.45,57.51a8.3,8.3,0,0,0-2.18.28,41.89,41.89,0,0,1,.22,9.91A38.9,38.9,0,0,0,20.45,57.51Z"/><path class="cls-4" d="M24.66,58.66a8.59,8.59,0,0,0-2.09-.86,35.91,35.91,0,0,1-3.82,9.75A34.08,34.08,0,0,0,24.66,58.66Z"/></g></g></svg>