<svg xmlns="http://www.w3.org/2000/svg" xmlns:xlink="http://www.w3.org/1999/xlink" viewBox="0 0 258.6 174.23"><defs><style>.cls-1{fill:#dde7ad;}.cls-2{fill:#d8e49f;}.cls-3{fill:url(#linear-gradient);}.cls-4{fill:url(#linear-gradient-2);}.cls-5{fill:url(#linear-gradient-3);}.cls-6{fill:url(#linear-gradient-4);}.cls-7{fill:url(#linear-gradient-5);}.cls-8{fill:url(#linear-gradient-6);}.cls-9{fill:url(#linear-gradient-7);}.cls-10{fill:#c3d667;}.cls-11{fill:url(#linear-gradient-8);}.cls-12{fill:url(#linear-gradient-9);}.cls-13{fill:url(#linear-gradient-10);}.cls-14{fill:url(#linear-gradient-11);}.cls-15{fill:url(#linear-gradient-12);}.cls-16{fill:#8bbe23;}.cls-17{fill:url(#linear-gradient-13);}</style><linearGradient id="linear-gradient" x1="268.57" y1="-500.75" x2="268.57" y2="-574.99" gradientTransform="matrix(0.25, -0.96, 1.37, 0.35, 841.14, 550.34)" gradientUnits="userSpaceOnUse"><stop offset="0" stop-color="#d8e49f"/><stop offset="1" stop-color="#90bf21"/></linearGradient><linearGradient id="linear-gradient-2" x1="137.59" y1="-291.2" x2="290.8" y2="-291.2" gradientTransform="translate(201.84 461.01) rotate(-42.41)" xlink:href="#linear-gradient"/><linearGradient id="linear-gradient-3" x1="257.44" y1="-520.57" x2="177.15" y2="-520.57" gradientTransform="matrix(0.43, -0.89, 1.27, 0.62, 679.16, 603.66)" xlink:href="#linear-gradient"/><linearGradient id="linear-gradient-4" x1="255.15" y1="-500.76" x2="255.15" y2="-574.99" xlink:href="#linear-gradient"/><linearGradient id="linear-gradient-5" x1="257.44" y1="-509.76" x2="177.15" y2="-509.76" gradientTransform="matrix(0.43, -0.89, 1.27, 0.62, 679.16, 603.66)" xlink:href="#linear-gradient"/><linearGradient id="linear-gradient-6" x1="178.57" y1="-174.26" x2="178.57" y2="-340.09" gradientTransform="translate(201.84 461.01) rotate(-42.41)" xlink:href="#linear-gradient"/><linearGradient id="linear-gradient-7" x1="257.44" y1="-538.69" x2="177.15" y2="-538.69" gradientTransform="matrix(0.43, -0.89, 1.27, 0.62, 679.16, 603.66)" xlink:href="#linear-gradient"/><linearGradient id="linear-gradient-8" x1="257.44" y1="-519.33" x2="177.15" y2="-519.33" gradientTransform="matrix(0.43, -0.89, 1.27, 0.62, 679.16, 603.66)" xlink:href="#linear-gradient"/><linearGradient id="linear-gradient-9" x1="293.06" y1="-542.95" x2="293.06" y2="-617.19" gradientTransform="matrix(0.11, -0.98, 1.41, 0.16, 944.04, 494.94)" xlink:href="#linear-gradient"/><linearGradient id="linear-gradient-10" x1="246.09" y1="-500.75" x2="246.09" y2="-574.99" xlink:href="#linear-gradient"/><linearGradient id="linear-gradient-11" x1="257.44" y1="-514.47" x2="177.15" y2="-514.47" gradientTransform="matrix(0.43, -0.89, 1.27, 0.62, 679.16, 603.66)" xlink:href="#linear-gradient"/><linearGradient id="linear-gradient-12" x1="288.91" y1="-542.95" x2="288.91" y2="-617.19" gradientTransform="matrix(0.11, -0.98, 1.41, 0.16, 944.04, 494.94)" xlink:href="#linear-gradient"/><linearGradient id="linear-gradient-13" x1="124.11" y1="-427.83" x2="154.76" y2="-427.83" gradientTransform="matrix(0.55, -0.84, 0.84, 0.55, 381.98, 506.19)" xlink:href="#linear-gradient"/></defs><g id="Calque_2" data-name="Calque 2"><g id="Layer_1" data-name="Layer 1"><path class="cls-1" d="M205.62,127.18C187,171.87,97.53,142.76,97.53,142.76s84.73,41,109.21-.76,33.53-65.52,51.86-64.24a207.86,207.86,0,0,0-24.84-13C225,75.55,218.28,96.73,205.62,127.18Z"/><path class="cls-2" d="M108.52,64.39q1.47,2.22,2.73,4.38A78.85,78.85,0,0,1,126,53.71c.22-.18.46-.34.68-.52C106.81,12.8,65.37,0,65.37,0s2.42,11.48,2.49,29.51A98.41,98.41,0,0,1,108.52,64.39Z"/><path class="cls-2" d="M137.87,58.4c29.94-17.47,70.27-5.11,95.89,6.34,4.11-5.06,8.68-7.86,14.53-8.25,0,0-78.24-36.2-121.57-3.3A97.23,97.23,0,0,1,130.89,63,82.41,82.41,0,0,1,137.87,58.4Z"/><path class="cls-3" d="M205.62,127.18C218.28,96.73,225,75.55,233.76,64.74c-25.62-11.45-65.95-23.81-95.89-6.34a82.41,82.41,0,0,0-7,4.56c1.1,3,2.08,6.18,2.92,9.48,14.19,55.68-36.28,70.32-36.28,70.32S187,171.87,205.62,127.18Z"/><path class="cls-4" d="M205.62,127.18C218.28,96.73,225,75.55,233.76,64.74c-25.62-11.45-65.95-23.81-95.89-6.34a82.41,82.41,0,0,0-7,4.56c1.1,3,2.08,6.18,2.92,9.48,14.19,55.68-36.28,70.32-36.28,70.32S187,171.87,205.62,127.18Z"/><path class="cls-5" d="M111.25,68.77a75.33,75.33,0,0,1,4.42,8.79A77,77,0,0,1,130.89,63a97.23,97.23,0,0,0-4.17-9.77c-.22.18-.46.34-.68.52A78.85,78.85,0,0,0,111.25,68.77Z"/><path class="cls-6" d="M133.81,72.44C133,69.14,132,66,130.89,63a77,77,0,0,0-15.22,14.6c16.9,40.21-18.14,65.2-18.14,65.2S148,128.12,133.81,72.44Z"/><path class="cls-7" d="M133.81,72.44C133,69.14,132,66,130.89,63a77,77,0,0,0-15.22,14.6c16.9,40.21-18.14,65.2-18.14,65.2S148,128.12,133.81,72.44Z"/><path class="cls-8" d="M126,53.71a78.85,78.85,0,0,0-14.79,15.06,75.33,75.33,0,0,1,4.42,8.79c16.9,40.21-18.14,65.2-18.14,65.2S148,128.12,133.81,72.44C133,69.14,132,66,130.89,63a97.23,97.23,0,0,0-4.17-9.77C126.5,53.37,126.26,53.53,126,53.71Z"/><path class="cls-2" d="M64.6,66.89a208.2,208.2,0,0,0,3.26-37.38A114.66,114.66,0,0,0,20,18.66S35.25,43.86,41.36,82s56.17,60.72,56.17,60.72S57.73,104.94,64.6,66.89Z"/><path class="cls-9" d="M111.25,68.77q-1.26-2.16-2.73-4.38A98.41,98.41,0,0,0,67.86,29.51,208.2,208.2,0,0,1,64.6,66.89c-6.87,38.05,32.93,75.87,32.93,75.87S86.64,101.75,111.25,68.77Z"/><path class="cls-10" d="M111.25,68.77q-1.26-2.16-2.73-4.38A98.41,98.41,0,0,0,67.86,29.51,208.2,208.2,0,0,1,64.6,66.89c-6.87,38.05,32.93,75.87,32.93,75.87S86.64,101.75,111.25,68.77Z"/><path class="cls-11" d="M115.67,77.56a75.33,75.33,0,0,0-4.42-8.79c-24.61,33-13.72,74-13.72,74S93,106.27,115.67,77.56Z"/><path class="cls-12" d="M115.67,77.56a75.33,75.33,0,0,0-4.42-8.79c-24.61,33-13.72,74-13.72,74S93,106.27,115.67,77.56Z"/><path class="cls-13" d="M115.67,77.56c-22.66,28.71-18.14,65.2-18.14,65.2S132.57,117.77,115.67,77.56Z"/><path class="cls-14" d="M115.67,77.56c-22.66,28.71-18.14,65.2-18.14,65.2S132.57,117.77,115.67,77.56Z"/><path class="cls-15" d="M115.67,77.56c-22.66,28.71-18.14,65.2-18.14,65.2S132.57,117.77,115.67,77.56Z"/><path class="cls-16" d="M97.53,142.76s35-25,18.14-65.2a75.33,75.33,0,0,0-4.42-8.79C86.64,101.75,97.53,142.76,97.53,142.76Z"/><path class="cls-2" d="M0,122.4s28.68-9.27,49.84,4.83C49.84,127.23,28.33,102.81,0,122.4Z"/><path class="cls-2" d="M13,105.82s25.37,2.83,36.8,21.09C49.83,126.91,41.73,100.57,13,105.82Z"/><path class="cls-17" d="M58.3,134.6s49.21,37.38,89.37,33.29C147.67,167.89,96.46,195.77,58.3,134.6Z"/><path class="cls-2" d="M54,117.34a8.74,8.74,0,1,0,2.52,12.1A8.75,8.75,0,0,0,54,117.34Z"/><path class="cls-10" d="M41.5,120.51a8.49,8.49,0,0,0-.81,2.13,42.84,42.84,0,0,1,9.15,4.59A40.11,40.11,0,0,0,41.5,120.51Z"/><path class="cls-10" d="M44.58,117.23a9,9,0,0,0-1.8,1.48,37.45,37.45,0,0,1,7,8.2A35.11,35.11,0,0,0,44.58,117.23Z"/></g></g></svg>