<svg xmlns="http://www.w3.org/2000/svg" xmlns:xlink="http://www.w3.org/1999/xlink" viewBox="0 0 267.81 193.16"><defs><style>.cls-1{fill:#e4c0db;}.cls-2{fill:#cfafd3;}.cls-3{fill:#b581b9;}.cls-4{fill:url(#linear-gradient);}.cls-5{fill:#efd4e7;}.cls-6{fill:url(#linear-gradient-2);}</style><linearGradient id="linear-gradient" x1="140.58" y1="86.71" x2="194.21" y2="86.71" gradientUnits="userSpaceOnUse"><stop offset="0" stop-color="#cfafd3"/><stop offset="1" stop-color="#8c489c"/></linearGradient><linearGradient id="linear-gradient-2" x1="61.1" y1="148.75" x2="85.08" y2="148.75" gradientTransform="matrix(-0.91, -0.42, -0.42, 0.91, 327.27, 39.1)" xlink:href="#linear-gradient"/></defs><g id="Calque_2" data-name="Calque 2"><g id="Layer_1" data-name="Layer 1"><path class="cls-1" d="M147.43,0s-2.1,39.54,20.43,58.74,35.51,33.92,18.7,53.63L156,148.27s-47.45-52-49.27-74.82S134.23,15.49,147.43,0Z"/><path class="cls-2" d="M186.56,112.37,133.15,175c-11.7,13.73-50.08,30.24-79.65,5L0,134.44S42.12,90.73,76.31,99.82,154.46,150,186.56,112.37Z"/><path class="cls-2" d="M170.6,23.1s0,32.19,19.17,46.78,30.32,26,17.55,42.71-23.27,30.5-23.27,30.5S143.25,103,140.77,84.52,160.57,36.25,170.6,23.1Z"/><path class="cls-2" d="M207.32,112.59l-40.6,53.22c-8.89,11.66-39.33,26.75-64.44,7.59L56.84,138.73s32.27-37.34,60.43-31.46S182.91,144.58,207.32,112.59Z"/><path class="cls-3" d="M167.07,125c9.07,10.29,17,18.07,17,18.07l.09-.11.53-.7,1-1.34,1.6-2.1.36-.46c.34-.46.7-.93,1.09-1.44l2.46-3.22,1.88-2.46,2.06-2.71.48-.63,3.51-4.59,1.09-1.43,4.16-5.46,2.31-3,.18-.24.15-.2.3-.39C196,127.46,181.81,128.62,167.07,125Z"/><path class="cls-4" d="M186.56,112.37c16.81-19.71,3.82-34.43-18.7-53.63a48.77,48.77,0,0,1-11.74-15.32C147.35,57,139.22,73,140.77,84.52c1.57,11.7,18.55,32.1,30.77,45.48Z"/><path class="cls-5" d="M168.88,125.44c-22,8.42-47-5.85-70.07-16.74-22.13,7.08-42,30-42,30l45.44,34.67a43.5,43.5,0,0,0,22.36,8.92,41.46,41.46,0,0,0,8.51-7.3l41.45-48.61A57.91,57.91,0,0,1,168.88,125.44Z"/><path class="cls-2" d="M267.81,68.13S240.13,75,230.16,96.92C230.16,96.92,235.24,66.54,267.81,68.13Z"/><path class="cls-2" d="M249.05,61.31s-19,15-19,35.36C230,96.67,223.35,71.44,249.05,61.31Z"/><path class="cls-6" d="M224.1,106.64s-11.32,20-55.21,71.44C168.89,178.08,217.55,158.15,224.1,106.64Z"/><circle class="cls-2" cx="229.4" cy="94.53" r="8.28"/><path class="cls-3" d="M233.51,87.35a8.25,8.25,0,0,1,1.71,1.31,41.21,41.21,0,0,0-5.06,8.26A37.94,37.94,0,0,1,233.51,87.35Z"/><path class="cls-3" d="M229.39,86.26a8.24,8.24,0,0,1,2.19.29A35.24,35.24,0,0,0,230,96.67,33.24,33.24,0,0,1,229.39,86.26Z"/></g></g></svg>