<svg xmlns="http://www.w3.org/2000/svg" xmlns:xlink="http://www.w3.org/1999/xlink" viewBox="0 0 193.74 232.36"><defs><style>.cls-1{fill:#f9bfc0;}.cls-2{fill:#fac5c1;}.cls-3{fill:#f58c89;}.cls-4{fill:#fcd7d4;}.cls-5{fill:url(#linear-gradient);}.cls-6{fill:#e83b2e;}.cls-7{fill:url(#linear-gradient-2);}</style><linearGradient id="linear-gradient" x1="-911.76" y1="148.74" x2="-822.99" y2="148.74" gradientTransform="matrix(-1, 0, 0, 1, -790.23, 0)" gradientUnits="userSpaceOnUse"><stop offset="0" stop-color="#f9bfc0"/><stop offset="1" stop-color="#ed1c24"/></linearGradient><linearGradient id="linear-gradient-2" x1="-828.4" y1="-10.5" x2="-794.99" y2="-10.5" gradientTransform="matrix(-0.92, -0.4, -0.4, 0.92, -627.04, -135.6)" xlink:href="#linear-gradient"/></defs><g id="Calque_2" data-name="Calque 2"><g id="Layer_1" data-name="Layer 1"><path class="cls-1" d="M89.81,60S76.54,54.32,61.9,66.56c-13.14,11-25.09,35.58-7,63.59-9.45.32-16.68,2.83-22.18,6.38C5.06,109.23,10.79,80.79,22,66.6c12.8-16.16,29.81-12.21,29.81-12.21s-7.15-20.78,11.71-44a32.23,32.23,0,0,1,5.81-5.64.69.69,0,0,1,.36-.27l.07,0A21.62,21.62,0,0,1,77.3,1C82-.59,88.44-.93,97.83,4.91c6.35,3.94,11.11,10.57,14.55,17.13-.68.48-1.36,1-2,1.55C88.89,41.1,89.81,60,89.81,60Z"/><path class="cls-2" d="M28.5,139.76C18.12,148.9,15.76,161.56,15.35,164h0a60.49,60.49,0,0,0-.85,17.65c2.13,24.82,17.78,32.69,34.07,31.07,32-1.89,70.83-46.72,73.06-49.32-2.07,4-31.88,59.82-67.6,67.52-18.11,4.68-38.56-1.27-49-28.39A68.15,68.15,0,0,1,.29,182.8h0C-.2,178.73-3,149.16,28.5,139.76Z"/><path class="cls-1" d="M121.84,163s5.73-87.56-2.06-121.15c0,0-.06-.28-.18-.78-.25-1-.51-2-.79-2.88A91.36,91.36,0,0,0,112.38,22a31.13,31.13,0,0,1,4.19-2.53.63.63,0,0,1,.36-.19H117a20.4,20.4,0,0,1,7.12-2c4.3-.75,9.79-.17,16.22,6.12C148.8,31.7,149.77,48,149.77,55c0,.82,0,1.68,0,2.59,0,.45,0,.7,0,.7-1.68,30-27.83,104.84-27.84,104.87s-.07.1-.11.14v0A.58.58,0,0,0,121.84,163Z"/><path class="cls-3" d="M119.6,41c.12.5.18.78.18.78,7.79,33.59,2.06,121.12,2.06,121.15a.58.58,0,0,1-.11.26h0l0-.06-.17-.19c-1.56-2.86-15.26-26-52.45-31.83-1.32-.24-2.64-.42-4-.54h0a67.85,67.85,0,0,0-10.25-.45c-18.13-28-6.18-52.61,7-63.59C76.54,54.32,89.81,60,89.81,60s-.92-18.9,20.52-36.41c.69-.56,1.37-1.07,2-1.55a91.36,91.36,0,0,1,6.43,16.12C119.09,39.07,119.35,40,119.6,41Z"/><path class="cls-4" d="M15.36,164h0c.41-2.42,2.77-15.08,13.15-24.22a35.5,35.5,0,0,1,4.26-3.23c.6.59,1.21,1.17,1.84,1.76a114.52,114.52,0,0,0,11.73,9.52l.25.17a103.25,103.25,0,0,0,25.9,14.41,73.84,73.84,0,0,0,35.71,4.3c1.07-.15,11.45-1.66,13.34-3.26l.13-.07,0,0c-2.23,2.6-41.09,47.43-73.06,49.32-16.29,1.62-31.94-6.25-34.07-31.07A60.49,60.49,0,0,1,15.36,164Z"/><path class="cls-5" d="M54.94,130.15a77.62,77.62,0,0,0,5.12,7c.75.92,1.53,1.84,2.35,2.77.05.06.11.11.16.18A74,74,0,0,0,80.72,156a57.27,57.27,0,0,0,28.81,8.48c1,0,10.16.1,12-1.07-1.89,1.6-12.27,3.11-13.34,3.26a73.84,73.84,0,0,1-35.71-4.3A103.25,103.25,0,0,1,46.58,148l-.25-.17a114.52,114.52,0,0,1-11.73-9.52c-.63-.59-1.24-1.17-1.84-1.76C38.26,133,45.49,130.47,54.94,130.15Z"/><path class="cls-6" d="M65.19,130.6h0c1.31.12,2.63.3,4,.54,37.19,5.79,50.89,29,52.45,31.83l.14.25,0,0a1,1,0,0,1-.18.18c-1.84,1.17-11,1.09-12,1.07A57.27,57.27,0,0,1,80.72,156a74,74,0,0,1-18.15-15.91c0-.07-.11-.12-.16-.18-.82-.93-1.6-1.85-2.35-2.77a77.62,77.62,0,0,1-5.12-7A67.85,67.85,0,0,1,65.19,130.6Z"/><path class="cls-1" d="M193.74,86.86s-31.66,8.77-42.46,34.31C151.28,121.17,156.2,86,193.74,86.86Z"/><path class="cls-1" d="M171.93,79.58S150.54,97.4,151.1,120.87C151.1,120.87,142.65,92,171.93,79.58Z"/><path class="cls-7" d="M148,133s-22.35,63.56-61.36,83.94C86.64,216.9,150,211.54,148,133Z"/><circle class="cls-1" cx="150.32" cy="118.43" r="9.53" transform="translate(-32.39 175.35) rotate(-55.54)"/></g></g></svg>