<svg xmlns="http://www.w3.org/2000/svg" xmlns:xlink="http://www.w3.org/1999/xlink" viewBox="0 0 256.63 219.21"><defs><style>.cls-1{fill:#c5e2ba;}.cls-2{fill:#d5eacc;}.cls-3{fill:#97d2b2;}.cls-4{fill:url(#linear-gradient);}.cls-5{fill:url(#linear-gradient-2);}</style><linearGradient id="linear-gradient" x1="119.3" y1="181.2" x2="177.47" y2="181.2" gradientTransform="matrix(1, -0.1, 0.1, 1, -2.06, -52.53)" gradientUnits="userSpaceOnUse"><stop offset="0" stop-color="#c5e2ba"/><stop offset="1" stop-color="#32bcaf"/></linearGradient><linearGradient id="linear-gradient-2" x1="-1147.3" y1="-279.24" x2="-1116.88" y2="-279.24" gradientTransform="matrix(-0.73, -0.68, -0.68, 0.73, -850.64, -392.17)" xlink:href="#linear-gradient"/></defs><g id="Calque_2" data-name="Calque 2"><g id="Layer_1" data-name="Layer 1"><path class="cls-1" d="M176.19,43.72C169.58,32.54,164.05,9.45,168.39,0c0,0-75.91,36.9-74.2,109.71,0,0-60.83-9.82-87.41,23.13s32.42,39.85,49.64,46.33a20.49,20.49,0,0,1,7.19,4.32s6.75,15.82-19.54,20-31,8.71-30,14.67c.73,4.29,67.79-4.6,121-32.66a159.11,159.11,0,0,0,18.74-13C192.3,141.33,201.38,86.33,176.19,43.72Z"/><path class="cls-2" d="M198.76,58c-2.42-6-3.17-11.62-.52-16.91,0,0-62.35,24.34-63,83.45,0,0-50-17-72.5,9s25.17,33.25,39,39a16.65,16.65,0,0,1,5.71,3.71s5,13-16.42,15.69-25.38,6.19-24.72,11c.21,1.55,11.13,1.37,27.06-1.19h0C189.6,179.45,204.17,120,204.6,87.64A77.38,77.38,0,0,0,198.76,58Z"/><path class="cls-3" d="M180,50.86c-18.46,12-44.37,35.66-44.81,73.65,0,0-50-17-72.5,9s25.17,33.25,39,39a16.65,16.65,0,0,1,5.71,3.71s5,13-16.42,15.69-25.38,6.19-24.72,11c.21,1.55,11.13,1.37,27.06-1.19h0c5.11-1.18,10-2.47,14.62-3.85a273.18,273.18,0,0,0,27.19-12.38,159.11,159.11,0,0,0,18.74-13C190.19,143.05,200.27,92.32,180,50.86Z"/><path class="cls-4" d="M180,50.86c-18.46,12-44.37,35.66-44.81,73.65a183.23,183.23,0,0,0,15,50.86c1.24-1,2.46-1.9,3.63-2.85C190.19,143.05,200.27,92.32,180,50.86Z"/><path class="cls-1" d="M256.63,120.57s-29.84-2.15-46.9,16.44C209.73,137,224.68,108.39,256.63,120.57Z"/><path class="cls-1" d="M240.15,107.67s-23.79,8.73-30.49,29C209.66,136.7,211.24,109.39,240.15,107.67Z"/><path class="cls-5" d="M203.31,146.12s-38.6,47.67-78.29,53.22C125,199.34,181,214.11,203.31,146.12Z"/><circle class="cls-1" cx="209.74" cy="134.37" r="8.68" transform="translate(-33.85 82.29) rotate(-20.58)"/><path class="cls-3" d="M216.18,128.56a8.56,8.56,0,0,1,1.28,1.86,42.29,42.29,0,0,0-7.73,6.59A39.46,39.46,0,0,1,216.18,128.56Z"/><path class="cls-3" d="M212.43,126.13a8.3,8.3,0,0,1,2.08,1,37,37,0,0,0-4.85,9.57A34.76,34.76,0,0,1,212.43,126.13Z"/></g></g></svg>