<svg xmlns="http://www.w3.org/2000/svg" xmlns:xlink="http://www.w3.org/1999/xlink" viewBox="0 0 222.07 198.69"><defs><style>.cls-1{fill:#cddff4;}.cls-2{fill:#bde3fa;}.cls-3{fill:#93c5ec;}.cls-4{fill:url(#linear-gradient);}.cls-5{fill:#457bbe;}.cls-6{fill:url(#linear-gradient-2);}</style><linearGradient id="linear-gradient" x1="-114.22" y1="130.1" x2="37.61" y2="130.1" gradientTransform="matrix(0.95, -0.32, 0.32, 0.95, 123.55, -1.57)" gradientUnits="userSpaceOnUse"><stop offset="0" stop-color="#bde3fa"/><stop offset="1" stop-color="#417cbf"/></linearGradient><linearGradient id="linear-gradient-2" x1="-23.84" y1="107.42" x2="3.09" y2="107.42" gradientTransform="translate(33.27 14.45) rotate(-3.79)" xlink:href="#linear-gradient"/></defs><g id="Calque_2" data-name="Calque 2"><g id="Layer_1" data-name="Layer 1"><path class="cls-1" d="M44.31,126.3C59.15,154.94,146.63,233,184.38,181.53c10.51-14.34,14.05-29.67,8.7-42.68C148.4,165.09,63.57,145.77,44.31,126.3Z"/><path class="cls-1" d="M103.74,103.74c-11.2-.1-22.38.47-33.55,1.27l-3.71.27c-10,.75-24.32.82-24.35,14.35,0,1.67.77,4,2.18,6.67,19.26,19.47,104.09,38.79,148.77,12.55-3.11-7.55-9.21-14.31-18.7-19.64C153,107.2,127.93,104,103.74,103.74Z"/><path class="cls-2" d="M44.31,126.3a27.27,27.27,0,0,1-1.22-2.64,13,13,0,0,1-1.84-1.44A16.16,16.16,0,0,0,44.31,126.3Z"/><path class="cls-2" d="M203.13,52.37a58,58,0,0,1-6.54,23.39,60.25,60.25,0,0,1-7,10.3c-5.5-6-13.53-10.32-24.27-12.09-24.22-4-48.87,1.52-71.68,9.56-10.56,3.73-20.88,8.08-31.11,12.64l-3.4,1.52c-9.11,4.11-22.58,9.07-18,21.79a9.66,9.66,0,0,0,1.23,2.18,8.4,8.4,0,0,1-.29-2c0-13.53,14.38-13.6,24.35-14.35l3.71-.27c11.17-.8,22.35-1.37,33.55-1.27,24.19.22,49.24,3.46,70.64,15.47,9.49,5.33,15.59,12.09,18.7,19.64a60.68,60.68,0,0,0,10-7.31C226.85,110,229.87,70.13,203.13,52.37Z"/><path class="cls-2" d="M73,75.34c66.58-37.22,108.3-37.49,130.15-23,3.07-48.06-53-95-148,15,0,0-31.74,37.79-13.83,54.89C30.24,100,73,75.34,73,75.34Z"/><path class="cls-2" d="M43.09,123.66A20.41,20.41,0,0,0,45.51,125a24.59,24.59,0,0,1-3.09-3.35A17.39,17.39,0,0,0,43.09,123.66Z"/><path class="cls-3" d="M59.18,97.69l3.4-1.52c10.23-4.56,20.55-8.91,31.11-12.64,22.81-8,47.46-13.54,71.68-9.56,10.74,1.77,18.77,6,24.27,12.09a60.25,60.25,0,0,0,7-10.3,58,58,0,0,0,6.54-23.39C181.28,37.85,139.56,38.12,73,75.34c0,0-42.74,24.7-31.73,46.88a13,13,0,0,0,1.84,1.44,17.39,17.39,0,0,1-.67-2,9.66,9.66,0,0,1-1.23-2.18C36.6,106.76,50.07,101.8,59.18,97.69Z"/><path class="cls-4" d="M45.51,125c23.73,21.86,132.6,65.42,150.51,4.14,5-17.07,3.09-32.69-6.38-43.09C156.6,126,70.27,136.75,45.51,125Z"/><path class="cls-5" d="M165.37,74c-24.22-4-48.87,1.52-71.68,9.56-10.56,3.73-20.88,8.08-31.11,12.64l-3.4,1.52c-9.11,4.11-22.58,9.07-18,21.79.57,1.58,2.07,3.46,4.32,5.53,24.76,11.74,111.09,1,144.13-38.95C184.14,80,176.11,75.74,165.37,74Z"/><path class="cls-2" d="M0,34.53S21.66,49.75,23,72.05C23,72.05,28.72,44.06,0,34.53Z"/><path class="cls-2" d="M18.52,34.91s11.42,19.3,4.65,37C23.17,71.88,37.38,52.27,18.52,34.91Z"/><path class="cls-6" d="M22.26,81.89s-.21,54.29,23.89,80.31C46.15,162.2-.49,141,22.26,81.89Z"/><circle class="cls-2" cx="24.42" cy="70.24" r="7.68" transform="translate(-7.33 3) rotate(-6.11)"/><path class="cls-3" d="M23.26,62.65a7.26,7.26,0,0,0-1.91.56A38,38,0,0,1,23,72.05,35.27,35.27,0,0,0,23.26,62.65Z"/><path class="cls-3" d="M27.19,63.08a7.72,7.72,0,0,0-2-.48,32.65,32.65,0,0,1-2,9.28A30.49,30.49,0,0,0,27.19,63.08Z"/></g></g></svg>